<?xml version="1.0" encoding="utf-8"?>
<!-- Generator: Adobe Illustrator 15.1.0, SVG Export Plug-In . SVG Version: 6.00 Build 0)  -->
<!DOCTYPE svg PUBLIC "-//W3C//DTD SVG 1.1//EN" "http://www.w3.org/Graphics/SVG/1.1/DTD/svg11.dtd">
<svg version="1.1" id="Layer_1" xmlns="http://www.w3.org/2000/svg" xmlns:xlink="http://www.w3.org/1999/xlink" x="2px" y="2px"  viewBox="400 10 250 1000" width="200" height="200" enable-background="new 0 0 893.888 792" xml:space="preserve">
<path fill-rule="evenodd" clip-rule="evenodd" fill="#F5F8DF" d="M311.076,12.542c17.58-0.517,46.953-2.209,53.993,8.249
	c2.507,7.277-38.533,50.09-44.995,59.243c-22.879,32.405-25.806,82.129-46.494,117.735c-10.278,17.688-19.119,14.037-34.496,24.747
	c-14.228,9.909-23.462,27.233-38.995,35.246c-1-0.75-2-1.5-3-2.25c-12.06-66.171,3.007-199.513,39.745-226.472
	c13.351-9.797,37.971-11.712,56.993-14.998C299.577,13.542,305.327,13.042,311.076,12.542z"/>
<path fill-rule="evenodd" clip-rule="evenodd" fill="#F5F8DF" d="M400.315,22.291c35.45-0.814,73.905,26.368,95.238,41.995
	c8.363,6.126,21.762,12.909,22.498,26.247c-12.446,17.697-49.202,19.538-67.492,31.496c-28.967,18.939-55.918,64.718-85.489,76.491
	c-10.857,4.322-33.619-4.113-50.244-0.75c-11.557,2.338-22.708,8.769-35.246,7.499c0-2.5,0-5,0-7.499
	C300.346,129.545,341.295,52.289,400.315,22.291z"/>
<path fill-rule="evenodd" clip-rule="evenodd" fill="#F5F8DF" d="M627.537,39.539c55.244-1.254,97.248,3.102,122.984,30.746
	c6.16,6.617,13.08,43.823,3,53.243c-9.023-4.474-13.617-12.965-21.748-17.998c-10.263-6.352-25.382-5.837-38.245-9.749
	c-10.593-3.222-19.268-7.683-32.246-9.749c-20.295-3.231-54.927,3.837-62.242-11.999C593.642,53.05,614.324,45.503,627.537,39.539z"
	/>
<path fill-rule="evenodd" clip-rule="evenodd" fill="#F5F8DF" d="M210.589,41.788c0.145,26.564-17.573,51.396-22.497,77.99
	c-1.75,38.241-3.5,76.494-5.249,114.736c2.25,14.747,4.5,29.498,6.749,44.245c-1.898,7.8-9.939,17.906-12.748,26.997
	c-4.762,15.409-3.587,35.972-7.499,53.243c-1.25,0.25-2.5,0.5-3.75,0.75c-29.674-30.104-53.371-107.491-65.992-155.98
	c-4.126-15.854-9.642-44.35-3.75-62.992c8.209-25.974,36.499-47.524,56.243-62.992C166.937,66.157,186.981,42.474,210.589,41.788z"
	/>
<path fill-rule="evenodd" clip-rule="evenodd" fill="#F5F8DF" d="M596.791,88.282c57.015-1.251,145.474,14.759,158.98,53.243
	c7.917,22.558-0.667,94.655-9.749,106.487c-2.968,3.867-7.286,5.186-14.248,5.249c-15.28-7.461-19.827-24.444-32.246-34.496
	c-24.495-19.246-48.996-38.497-73.491-57.743c-11.699-7.585-35.425-7.715-42.745-19.498c-4.655-7.493,3.719-46.484,7.499-51.743
	C592.791,89.282,594.791,88.782,596.791,88.282z"/>
<path fill-rule="evenodd" clip-rule="evenodd" fill="#F5F8DF" d="M522.549,106.28c42.306-0.232,58.9,41.013,68.992,73.491
	c2.276,7.324,11.591,28.564,5.25,37.496c-3.361,5.808-9.895,7.06-17.248,8.999c-34.182,9.011-48.726-20.975-59.993-18.748
	c-5.999,3.25-11.999,6.5-17.998,9.749c-22.354,11.2-39.933,21.458-59.993,33.746c-8.294,5.081-21.947,16.069-33.746,8.249
	c-2.477-9.52-4.12-24.306-8.999-32.246c-5.499-6.499-10.999-12.999-16.498-19.498c-3.313-10.037,19.805-29.137,24.747-33.746
	c23.854-22.248,51.284-44.758,83.24-58.493C500.277,110.992,511.663,110.836,522.549,106.28z"/>
<path fill-rule="evenodd" clip-rule="evenodd" fill="#9E1C20" d="M597.541,158.024c23.908,0.887,37.328,19.514,51.743,30.746
	c12.509,9.747,26.89,19.916,36.746,32.246c11.73,14.676,23.797,34.085,40.495,43.494c5.716,3.221,15.244,0.602,19.498,2.25
	c-0.204,25.626-15.539,45.675-9.749,73.491c5.977,28.713,28.883,53.328,44.994,73.491c4.867,6.091,15.859,9.885,19.498,16.498
	c2.81,5.277,0.829,12.993,0,18.748c11.035,7.972,80.499,61.445,31.496,71.241c-6.088-10.748-17.127-28.824-29.996-32.246
	c-14.184-3.771-39.865-4-41.245,9.749c-1-0.25-2-0.5-3-0.75c-14.247-20.246-28.498-40.497-42.745-60.742
	c-20.745-33.743-41.497-67.495-62.242-101.238c-18.377-30.12-37.372-59.659-50.244-95.238
	C624.352,215.712,603.693,180.404,597.541,158.024z"/>
<path fill-rule="evenodd" clip-rule="evenodd" fill="#F5F8DF" d="M77.105,167.772c0.75,0,1.5,0,2.25,0
	c13.948,14.135,16.357,64.348,23.247,86.989c14.456,47.505,41.67,82.925,65.242,121.485c3.5,4.999,7,9.999,10.499,14.998
	c1,8.498,2,16.999,3,25.497c1.821,8.183,9.014,15.944,7.499,24.747c-37.419,5.253-70.777-33.057-86.989-53.243
	c-19.533-24.321-39.226-47.536-56.993-74.241c-4.749-6.999-9.5-13.999-14.248-20.998c-3.389-11.544,5.399-27.87,8.249-35.995
	C50.02,225.19,59.034,192.546,77.105,167.772z"/>
<path fill-rule="evenodd" clip-rule="evenodd" fill="#9E1C20" d="M324.574,203.018c59.895,1.449,62.215,25.731,76.491,71.991
	c2.795,9.058,16.498,46.494,16.498,46.494c-10.241,10.116-36.693,8.707-49.494,2.25c-20.896-10.54-61.711-45.367-70.491-66.741
	c-6.818-16.601-3.081-40.51,8.999-48.744C311.625,204.827,318.169,205.479,324.574,203.018z"/>
<path fill-rule="evenodd" clip-rule="evenodd" fill="#9E1C20" d="M518.8,215.767c1,0,2,0,3,0
	c2.335,17.383,31.952,26.032,47.994,29.996c9.197,2.273,15.33-0.143,20.998,3.75c14.247,21.745,28.498,43.497,42.745,65.242
	c31.624,50.633,61.036,102.455,93.738,151.481c6.499,9.498,12.999,18.999,19.498,28.497c3.5,2.999,7,6,10.499,8.999
	c0.75,4.249,1.5,8.5,2.25,12.749c6.232,15.196,14.323,17.099,29.246,23.997c0,1,0,2,0,3c-45.357,53.199-61.034-2.803-83.989-37.495
	c-32.761-49.51-65.438-99.931-95.988-151.481c-14.568-24.583-17.55-56.424-41.995-71.241c-32.108-19.462-69.034-5.434-96.738,8.999
	c-11.351,5.913-30.531,20.966-46.494,11.998c-3.156-7.755-14.427-21.691-10.499-32.246c1.044-1.442,0.076-0.449,1.5-1.5
	c4.249-0.75,8.5-1.5,12.749-2.25C457.805,250.764,488.307,233.263,518.8,215.767z"/>
<path fill-rule="evenodd" clip-rule="evenodd" fill="#9E1C20" d="M524.049,281.758c49.723-0.54,68.479,44.591,79.49,82.49
	c-20.606-18.226-39.047-68.042-71.241-71.991c-24.291-2.979-45.537,21.403-73.491,18.748c1-1.75,2-3.5,3-5.25
	c11.748-5.749,23.499-11.499,35.246-17.248C506.051,286.258,515.051,284.008,524.049,281.758z"/>
<path fill-rule="evenodd" clip-rule="evenodd" fill="#9E1C20" d="M529.299,301.256c15.296,2.629,28.016,10.601,32.996,23.247
	c-8.498-5.499-16.999-10.999-25.497-16.498c-16.075-3.931-29.088,9.263-45.744,9.749c1-1.25,2-2.5,3-3.75
	c5.499-2.75,10.999-5.5,16.498-8.249C516.8,304.256,523.05,302.755,529.299,301.256z"/>
<path fill-rule="evenodd" clip-rule="evenodd" fill="#F5F8DF" d="M527.049,313.254c14.464-0.463,28.391,8.273,31.496,18.748
	c-18.799,7.697-42.065,10.874-56.243-3.75C508.471,320.3,517.843,318.328,527.049,313.254z"/>
<path fill-rule="evenodd" clip-rule="evenodd" fill="#9E1C20" d="M446.809,321.503c0.648,17.06,10.898,31.067,17.248,43.495
	c17.746,33.992,35.498,67.995,53.244,101.987c10.012,23.341,1.604,60.204,5.999,88.489c1,17.496,2,34.998,3,52.494
	c-0.25,0-0.5,0-0.75,0c-17.01-2.606-30.362-20.712-41.995-29.997c-16.405-13.093-39.371-28.367-47.994-48.744
	c-11.238-26.558-4.73-85.321-4.5-119.985c-18.349,1.713-41.952-29.105-50.994-41.245c-3.058-4.105-13.364-13.04-10.499-21.747
	c3.967-12.057,35.693-3.911,47.244-8.999c6.344-2.794,8.566-10.87,14.248-14.248C435.495,320.367,441.015,321.067,446.809,321.503z"
	/>
<path fill-rule="evenodd" clip-rule="evenodd" fill="#F5F8DF" d="M30.611,324.503c10.098,5.034,15.384,20.934,21.747,29.997
	c8.526,12.142,19.309,24.518,30.746,33.746c24.913,20.099,49.809,48.933,80.99,61.492c12.205,4.916,26.889-4.028,35.246-0.75
	c6.466,15.986,22.094,20.284,28.497,35.246c-9.358,14.203-87.928,30.946-113.986,20.248c-14.777-6.067-23.798-23.302-32.246-35.996
	C63.571,441.387,21.693,372.303,30.611,324.503z"/>
<path fill-rule="evenodd" clip-rule="evenodd" fill="#9E1C20" d="M465.557,324.503c20.79,5.826,31.006,26.933,51.744,31.496
	c25.152,5.534,41.859-12.441,61.492-14.248c0.25,0.5,0.5,1,0.75,1.5c-1.231,9.116-7.432,14.398-11.999,20.248
	c-26.18,33.536-59.859,24.533-86.239-1.5C474.351,355.136,455.967,337.307,465.557,324.503z"/>
<path fill-rule="evenodd" clip-rule="evenodd" fill="#9E1C20" d="M485.804,324.503c11.248,6.749,22.498,13.499,33.746,20.248
	c19.637,4.855,38.295-8.267,49.494-13.498c0,0.25,0,0.5,0,0.75C554.203,363.884,496.248,350.178,485.804,324.503z"/>
<path fill-rule="evenodd" clip-rule="evenodd" fill="#9E1C20" d="M587.792,364.248c2.824,7.331-2.264,20.697-3.75,27.747
	c-3.5,24.744-7,49.496-10.499,74.241c-9.366,6.938-28.136,13.27-41.995,5.25c-12.077-6.989-53.684-83.446-56.993-101.987
	c8.84,6.912,14.551,17.666,25.497,22.497C542.454,410.709,567.582,384.095,587.792,364.248z"/>
<path fill-rule="evenodd" clip-rule="evenodd" fill="#9E1C20" d="M595.291,364.998c4.276,2.605,8.413,5.632,9.749,11.249
	c-2.653,2.266-3.39,3.32-8.249,3.75c-0.5-0.5-1-1-1.5-1.5C595.291,373.997,595.291,369.497,595.291,364.998z"/>
<path fill-rule="evenodd" clip-rule="evenodd" fill="#9E1C20" d="M608.039,379.246c23.456,42.079,52.436,78.542,79.49,116.985
	c7.778,11.052,27.09,30.729,17.998,43.495c-7.964,2.826-26.313,7.146-31.496,13.499c9.24,22.533-16.948,47.757-10.499,74.991
	c4.27,2.743,10.917,4.376,16.498,5.999c0,0.25,0,0.5,0,0.75c-0.5,0-1,0-1.5,0c-12.908,5.463-86.001-7.816-89.238-12.749
	c-6.768-12.066-2.054-31.593-4.5-47.994c-5.73-38.421-1.3-166.419,11.249-188.226C603.209,386.131,606.094,384.308,608.039,379.246z
	"/>
<path fill-rule="evenodd" clip-rule="evenodd" fill="#9E1C20" d="M575.043,475.234c0.75,0,1.5,0,2.25,0
	c-2.632,30.559-2.207,70.444,2.25,100.487c1.899,12.806,2.574,36.354-2.25,45.744c-12.894,3.79-36.316-8.41-41.995-17.248
	c-10.594-16.197-6.852-69.617-9.749-93.738c0-10.998,0-21.999,0-32.996C529.792,496.498,566.812,480.9,575.043,475.234z"/>
<path fill-rule="evenodd" clip-rule="evenodd" fill="#F5F8DF" d="M245.834,484.233c3.007,0.434,2.243-0.034,3.75,1.5
	c11.927,30.978,25.164,31.375,53.244,18.748c3.499,5.249,7,10.5,10.499,15.748c6.208,7.99,15.813,10.019,20.248,20.248
	c-0.75,1.5-1.5,3-2.25,4.5c-27.833,8.465-90.198,27.892-129.734,18.748c-22.659-5.241-35.564-17.382-50.993-29.247
	c-7.249-5.999-14.499-11.999-21.747-17.998c0-0.25,0-0.5,0-0.75C170.914,516.478,222.474,502.832,245.834,484.233z"/>
<path fill-rule="evenodd" clip-rule="evenodd" fill="#9E1C20" d="M836.01,524.728c16.411,8.901,20.012,67.964-8.249,51.744
	C825.201,559.131,830.668,538.564,836.01,524.728z"/>
<path fill-rule="evenodd" clip-rule="evenodd" fill="#9E1C20" d="M801.515,541.226c7.356,2.203,11.765,4.662,17.248,8.249
	c11.572,36.575-16.765,37.003-44.995,27.747c1.221-4.236,4.358-6.743,7.499-8.999C788.016,559.225,794.766,550.224,801.515,541.226z
	"/>
<path fill-rule="evenodd" clip-rule="evenodd" fill="#9E1C20" d="M718.275,544.976c17.817,14.863,26.507,35.336,53.244,41.995
	c14.548,3.623,50.253-4.935,57.743,6.749c2.216,9.754-11.591,22.22-17.998,26.997c-29.791,22.211-109.835,21.668-139.483,0
	c0.24-19.928,9.823-35.008,14.249-51.743c1.464-5.536,0.691-11.129,3-14.998C697.081,551.935,712.877,550.339,718.275,544.976z"/>
<path fill-rule="evenodd" clip-rule="evenodd" fill="#F5F8DF" d="M824.012,623.716c12.172-0.256,22.683,5.582,28.496,11.999
	c-3.002,0.33-1.575-0.744-3.75,1.5c2.827,7.709,5.953,13.629,11.249,18.748c3.5-0.5,7-1,10.499-1.5c0,0.25,0,0.5,0,0.75
	c-1.597,4.228-2.33,9.433-7.5,10.499c-2.495-1.023-5.366-1.994-8.249-0.75c1.051,2.697,1.508,4.515,0.75,7.499
	c-11.708-0.425-15.548,2.933-24.747,5.25c-21.992,5.539-39.942-0.877-53.993-8.249c-3.167,2.719-3.142,4.28-7.5,2.25
	c-4.249-6.998-8.499-13.999-12.748-20.997c0.25-0.5,0.5-1,0.75-1.5C788.153,649.697,812.363,642.777,824.012,623.716z"/>
<g>
	<path fill="#FFFFFF" d="M107.828,669.731l-12.067,87.588h-8.813l-7.611-55.06l-7.617,55.06h-8.855L50.8,669.731h8.053l8.5,58.127
		l8.458-58.127h7.004l8.604,58.481l8.451-58.481H107.828z"/>
	<path fill="#FFFFFF" d="M144.808,743.694c0,3.763-1.332,6.974-3.991,9.634c-2.66,2.662-5.873,3.991-9.634,3.991
		c-3.764,0-6.974-1.329-9.634-3.991c-2.662-2.66-3.991-5.871-3.991-9.634v-54.499h7.786v54.499c0,1.622,0.568,3.001,1.703,4.137
		c1.135,1.134,2.514,1.701,4.136,1.701c1.621,0,3-0.567,4.136-1.701c1.135-1.136,1.703-2.515,1.703-4.137v-54.499h7.786V743.694z
		 M126.998,681.409c0,1.104-0.374,2.029-1.119,2.773c-0.746,0.747-1.67,1.121-2.773,1.121c-1.104,0-2.029-0.374-2.773-1.121
		c-0.747-0.745-1.12-1.669-1.12-2.773c0-1.102,0.373-2.026,1.12-2.773c0.745-0.745,1.67-1.119,2.773-1.119
		c1.103,0,2.027,0.374,2.773,1.119C126.625,679.383,126.998,680.308,126.998,681.409z M143.542,681.409
		c0,1.104-0.373,2.029-1.119,2.773c-0.746,0.747-1.671,1.121-2.773,1.121c-1.104,0-2.029-0.374-2.775-1.121
		c-0.746-0.745-1.118-1.669-1.118-2.773c0-1.102,0.373-2.026,1.118-2.773c0.746-0.745,1.67-1.119,2.775-1.119
		c1.102,0,2.027,0.374,2.773,1.119C143.169,679.383,143.542,680.308,143.542,681.409z"/>
	<path fill="#FFFFFF" d="M183.734,757.319h-23.356v-68.123h7.785v60.336h15.571V757.319z"/>
	<path fill="#FFFFFF" d="M218.769,727.15h-15.572v30.169h-7.785v-68.123h23.357v7.785h-15.572v22.384h15.572V727.15z"/>
	<path fill="#FFFFFF" d="M277.061,757.319h-8.007l-2.93-16.544h-11.12l-2.931,16.544h-8.004l12.069-68.123h8.855L277.061,757.319z
		 M264.742,732.989l-4.129-23.876l-4.327,23.876H264.742z"/>
	<path fill="#FFFFFF" d="M314.04,757.319h-8.759l-10.704-39.42v39.42h-7.786v-68.123h8.763l10.702,39.401v-39.401h7.785V757.319z"/>
	<path fill="#FFFFFF" d="M356.858,743.694c0,3.763-1.331,6.974-3.99,9.634c-2.66,2.662-5.873,3.991-9.634,3.991H329.61v-68.123
		h13.625c3.761,0,6.974,1.33,9.634,3.99c2.659,2.661,3.99,5.873,3.99,9.634V743.694z M349.073,743.694v-40.875
		c0-1.621-0.568-3-1.703-4.136c-1.136-1.134-2.514-1.703-4.135-1.703h-5.84v52.552h5.84c1.621,0,2.999-0.567,4.135-1.701
		C348.504,746.695,349.073,745.316,349.073,743.694z"/>
	<path fill="#FFFFFF" d="M419.141,743.694c0,3.763-1.332,6.974-3.992,9.634c-2.659,2.662-5.872,3.991-9.633,3.991
		c-3.764,0-6.975-1.329-9.634-3.991c-2.662-2.66-3.992-5.871-3.992-9.634v-5.839h7.787v5.839c0,1.622,0.567,3.001,1.703,4.137
		c1.134,1.134,2.514,1.701,4.136,1.701c1.621,0,3-0.567,4.136-1.701c1.135-1.136,1.703-2.515,1.703-4.137v-10.706
		c0-5.579-1.689-10.023-5.061-13.332c-3.115-2.531-6.228-5.094-9.342-7.688c-3.374-3.632-5.062-8.628-5.062-14.988v-13.625
		c0-3.762,1.33-6.973,3.992-9.634c2.659-2.659,5.87-3.991,9.634-3.991c3.761,0,6.974,1.332,9.633,3.991
		c2.66,2.662,3.992,5.872,3.992,9.634v5.84h-7.786v-5.84c0-1.621-0.568-2.999-1.703-4.135c-1.136-1.134-2.515-1.703-4.136-1.703
		c-1.622,0-3.001,0.569-4.136,1.703c-1.136,1.136-1.703,2.514-1.703,4.135v10.706c0,5.581,1.686,10.023,5.06,13.333
		c3.115,2.53,6.229,5.093,9.342,7.688c3.374,3.634,5.062,8.629,5.062,14.987V743.694z"/>
	<path fill="#FFFFFF" d="M461.959,757.319h-7.785V727.15h-11.678v30.169h-7.785v-68.123h7.785v30.169h11.678v-30.169h7.785V757.319z
		"/>
	<path fill="#FFFFFF" d="M500.885,757.319H477.53v-68.123h23.355v7.785h-15.57v22.384h15.57v7.785h-15.57v22.382h15.57V757.319z"/>
	<path fill="#FFFFFF" d="M539.813,757.319h-23.356v-68.123h23.356v7.785h-15.571v22.384h15.571v7.785h-15.571v22.382h15.571V757.319
		z"/>
	<path fill="#FFFFFF" d="M582.633,713.525c0,3.764-1.33,6.975-3.989,9.634c-2.662,2.661-5.874,3.991-9.635,3.991h-5.839v30.169
		h-7.785v-68.123h13.624c3.762,0,6.974,1.33,9.635,3.99c2.66,2.661,3.989,5.873,3.989,9.634V713.525z M574.848,713.525v-10.706
		c0-1.621-0.569-3-1.703-4.136c-1.136-1.134-2.516-1.703-4.137-1.703h-5.839v22.384h5.839c1.621,0,3-0.568,4.137-1.704
		C574.279,716.527,574.848,715.147,574.848,713.525z"/>
	<path fill="#FFFFFF" d="M641.022,743.694c0,3.763-1.33,6.974-3.989,9.634c-2.662,2.662-5.874,3.991-9.635,3.991
		c-3.764,0-6.975-1.329-9.635-3.991c-2.661-2.66-3.989-5.871-3.989-9.634v-5.839h7.785v5.839c0,1.622,0.567,3.001,1.703,4.137
		c1.134,1.134,2.514,1.701,4.136,1.701c1.621,0,3-0.567,4.136-1.701c1.134-1.136,1.703-2.515,1.703-4.137v-10.706
		c0-5.579-1.689-10.023-5.061-13.332c-3.115-2.531-6.228-5.094-9.342-7.688c-3.375-3.632-5.06-8.628-5.06-14.988v-13.625
		c0-3.762,1.328-6.973,3.989-9.634c2.66-2.659,5.871-3.991,9.635-3.991c3.761,0,6.973,1.332,9.635,3.991
		c2.659,2.662,3.989,5.872,3.989,9.634v5.84h-7.785v-5.84c0-1.621-0.569-2.999-1.703-4.135c-1.136-1.134-2.515-1.703-4.136-1.703
		c-1.622,0-3.002,0.569-4.136,1.703c-1.136,1.136-1.703,2.514-1.703,4.135v10.706c0,5.581,1.686,10.023,5.06,13.333
		c3.115,2.53,6.229,5.093,9.342,7.688c3.374,3.634,5.061,8.629,5.061,14.987V743.694z"/>
	<path fill="#FFFFFF" d="M682.869,696.98h-8.76v60.338h-7.785V696.98h-9.731v-7.785h26.276V696.98z"/>
	<path fill="#FFFFFF" d="M725.688,743.694c0,3.763-1.33,6.974-3.989,9.634c-2.662,2.662-5.874,3.991-9.635,3.991
		c-3.764,0-6.976-1.329-9.635-3.991c-2.66-2.66-3.989-5.871-3.989-9.634v-54.499h7.786v54.499c0,1.622,0.567,3.001,1.703,4.137
		c1.134,1.134,2.514,1.701,4.136,1.701c1.621,0,3-0.567,4.137-1.701c1.134-1.136,1.702-2.515,1.702-4.137v-54.499h7.786V743.694z"/>
	<path fill="#FFFFFF" d="M768.506,743.694c0,3.763-1.33,6.974-3.989,9.634c-2.662,2.662-5.873,3.991-9.635,3.991h-13.625v-68.123
		h13.625c3.762,0,6.973,1.33,9.635,3.99c2.659,2.661,3.989,5.873,3.989,9.634V743.694z M760.721,743.694v-40.875
		c0-1.621-0.569-3-1.703-4.136c-1.136-1.134-2.515-1.703-4.136-1.703h-5.839v52.552h5.839c1.621,0,3-0.567,4.136-1.701
		C760.152,746.695,760.721,745.316,760.721,743.694z"/>
	<path fill="#FFFFFF" d="M791.862,757.319h-7.785v-68.123h7.785V757.319z"/>
	<path fill="#FFFFFF" d="M834.681,743.694c0,3.763-1.33,6.974-3.989,9.634c-2.662,2.662-5.873,3.991-9.634,3.991
		c-3.764,0-6.976-1.329-9.635-3.991c-2.66-2.66-3.989-5.871-3.989-9.634v-40.875c0-3.761,1.329-6.973,3.989-9.634
		c2.659-2.66,5.871-3.99,9.635-3.99c3.761,0,6.973,1.33,9.634,3.99c2.66,2.661,3.989,5.873,3.989,9.634V743.694z M826.896,743.694
		v-40.875c0-1.621-0.569-3-1.703-4.136c-1.136-1.134-2.515-1.703-4.136-1.703c-1.623,0-3.003,0.569-4.137,1.703
		c-1.136,1.136-1.703,2.515-1.703,4.136v40.875c0,1.622,0.567,3.001,1.703,4.137c1.134,1.134,2.514,1.701,4.137,1.701
		c1.621,0,3-0.567,4.136-1.701C826.327,746.695,826.896,745.316,826.896,743.694z"/>
	<path fill="#FFFFFF" d="M877.5,743.694c0,3.763-1.33,6.974-3.989,9.634c-2.662,2.662-5.873,3.991-9.634,3.991
		c-3.765,0-6.976-1.329-9.635-3.991c-2.66-2.66-3.989-5.871-3.989-9.634v-5.839h7.785v5.839c0,1.622,0.567,3.001,1.703,4.137
		c1.134,1.134,2.514,1.701,4.137,1.701c1.621,0,3-0.567,4.136-1.701c1.134-1.136,1.703-2.515,1.703-4.137v-5.839
		c0-4.412-1.688-7.656-5.06-9.733c-3.115-1.751-6.229-3.503-9.343-5.255c-3.375-2.725-5.06-7.136-5.06-13.235v-6.813
		c0-3.761,1.329-6.973,3.989-9.634c2.659-2.66,5.871-3.99,9.635-3.99c3.761,0,6.973,1.33,9.634,3.99
		c2.66,2.661,3.989,5.873,3.989,9.634v5.84h-7.785v-5.84c0-1.621-0.569-3-1.703-4.136c-1.136-1.134-2.515-1.703-4.136-1.703
		c-1.623,0-3.003,0.569-4.137,1.703c-1.136,1.136-1.703,2.515-1.703,4.136v5.84c0,4.413,1.687,7.656,5.061,9.731
		c3.115,1.752,6.228,3.504,9.341,5.255c3.374,2.726,5.061,7.138,5.061,13.236V743.694z"/>
</g>
</svg>
